<svg enable-background="new 31.648 171.244 429.01 155.87" height="155.87" viewBox="31.648 171.244 429.01 155.87" width="429.01" xmlns="http://www.w3.org/2000/svg"><g fill="#6c6555"><path d="m447.621 296.689c-6.795 8.682-14.157 11.65-14.433 11.762-3.321 1.07-5.745 1.104-6.761.07-1.829-1.856-2.102-8.797 1.623-19.641.913-2.655 2.248-5.768 3.677-9.092 6.269-14.588 14.852-34.568-2.24-43.841-7.498-4.062-16.259-2.057-25.635 5.847 1.93-4.67 3.602-8.574 4.981-11.633 23.418-2.936 39.73-15.151 43.761-25.754 1.67-4.395 1.179-8.37-1.388-11.192-1.455-1.604-4.301-3.516-9.581-3.516-2.602 0-5.595.46-8.9 1.367-14.714 4.038-22.788 18.239-29.208 31.235l-.12.246c-5.828.568-11.471.958-16.795 1.159 7.369-16.3 12.645-25.631 12.712-25.751l1.494-3.018-9.488.646-.154.283c-1.947 3.605-7.146 13.514-13.56 28.001-13.451-.047-19.85-1.48-20.116-1.541l-.562-.127-1.942 7.903.562.139c.251.061 6.112 1.485 18.546 1.752-2.973 7.034-5.833 14.234-8.511 21.417l-.975 1.122c-7.815 8.471-18.478 17.655-22.083 18.01-1.337-1.369-2.09-6.653-2.058-11.052l.426-.89c2.012-4.188 4.095-8.521 6.523-14.441l.286-.697-7.458-1.023-.146-.22h-.311c-.309 0-.449.187-.54.373-.024.047-.044.094-.062.136-2.065 4.908-3.88 8.687-5.636 12.343-.75 1.557-1.492 3.102-2.172 4.596-.093.116-.186.236-.262.346-5.781 8.1-11.766 10.559-15.031 10.09-1.601-.222-2.651-1.103-3.222-2.693-3.736-10.459 3.321-20.018 11.171-25.478 4.171-2.902 10.211-3.511 14.549-3.511 2.784 0 5.139.249 6.293.397l.471.061 2.711-7.809-.671-.12c-.389-.068-3.937-.677-8.668-.677-5.563 0-13.436.861-19.337 4.965-.985.685-1.94 1.405-2.912 2.196-5.243-3.07-10.55-3.811-15.634-2.179-3.155 1.01-6.203 2.943-9.071 5.751-.669-1.763-1.826-3.121-3.514-4.132-1.887-1.128-3.632-1.679-5.338-1.679-5.998 0-10.726 6.867-17.957 17.362l-2.34 3.39c-3.68 5.31-8.375 9.574-12.086 12.475l.648-2.036c2.643-8.628 4.369-14.954 4.386-15.014.262-.957.169-1.976-.267-2.866s-1.182-1.591-2.098-1.973c-1.17-.486-2.536-.391-3.629.251-.609.356-1.116.868-1.468 1.485-4.253 7.406-15.604 22.7-23.547 22.7-.662 0-1.293-.111-1.877-.33-.783-.297-1.565-.74-1.759-2.584-.784-7.404 8.958-22.638 12.378-24.838 1.752-1.126 4.855-1.722 8.97-1.722 4.379 0 8.908.674 11.688 1.304l.458.105 3.548-7.564-2.197-.486c-1.117-.256-7.013-1.525-13.434-1.525-5.786 0-10.307 1.021-13.438 3.033-.481.311-1.036.758-1.651 1.335-5.382-3.292-10.842-4.118-16.076-2.429-3.052.982-6.004 2.84-8.785 5.525-.788-1.869-2.185-3.229-4.243-4.142-1.042-.462-2.132-.696-3.239-.696-6.755 0-12.55 8.597-14.139 11.19l-.436.604c-.167.233-.312.436-.436.598-14.26 18.705-23.613 23.762-28.95 24.711-2.315.41-3.984.107-4.894-.889-.708-.775-2.191-3.312-1.011-10.301.969.102 1.961.152 2.957.152 4.141 0 10.478-.918 17.165-5.295 7.006-4.587 10.471-11.11 9.266-17.451-.84-4.426-4.003-7.829-8.056-8.669-4.808-.994-11.198 1.75-17.143 7.304-1.473-.535-7.343-2.477-14.806-2.477-3.99 0-7.826.551-11.408 1.639-3.616-6.872-9.322-11.089-13.879-13.534 13.61-5.823 24.229-16.701 27.215-27.984 2.071-7.824.234-14.508-4.916-17.876-2.179-1.424-4.767-2.146-7.692-2.146-9.456 0-20.697 7.35-28.463 13.516-.096.077-.192.155-.29.232 2.352-6.333 3.863-10.394 3.926-10.563l1.548-4.154-9.06.975-.338.91c-.877 2.357-4.351 11.694-8.753 23.584-24 21.772-37.626 43.421-40.503 64.347-2.32 16.892 4.029 20.284 6.867 20.96.608.143 1.23.217 1.848.217 6.034 0 12.01-6.896 15.986-18.447 3.705-10.758 14.395-39.8 22.733-62.326 3.473-3.107 7.207-6.252 11.104-9.344 12.875-10.225 20.115-11.752 23.284-11.752 1.386 0 2.51.275 3.342.819 2.035 1.333 2.61 4.768 1.498 8.969-3.18 12.012-17.908 23.326-33.488 25.754l-4.588.385-1.885 7.751 1.309-.178c.023.003.49.021 1.158.04 1.308.04 4.367.131 4.662.173 2.362.417 14.24 2.969 19.805 12.77-20.242 9.51-31.414 21.366-37.234 29.674-7.634 10.896-11.041 22.566-9.346 32.016 1.504 8.393 6.853 13.633 14.304 14.016 7.263.43 14.149-2.344 20.479-8.061 13.725-12.395 22.023-36.84 22.864-53.547.169-3.334-.073-6.532-.72-9.509 2.685-.765 5.575-1.154 8.598-1.154 3.584 0 6.728.544 8.938 1.072-2.437 3.436-4.182 6.944-5.064 10.193-.208.766-.399 1.516-.573 2.262l-.458 2.146c-1.627 8.394-.682 14.584 2.805 18.396 1.552 1.697 4.379 3.719 9.04 3.719 1.047 0 2.155-.104 3.295-.307 9.813-1.745 21.251-11.098 33.997-27.799 1.301-1.705 2.701-3.611 4.24-5.78 2.189-2.477 3.751-3.399 4.159-3.45.129.158.454 1.441-.308 4.833-.464 2.062-1.236 4.584-2.438 7.954-1.121 3.14-2.469 6.609-3.903 10.306-1.335 3.439-2.716 6.994-4.109 10.77l-.29.783h8.692l.143-.379c1.065-2.827 2.122-5.551 3.167-8.246 1.437-3.697 2.794-7.188 3.938-10.395 1.463-3.848 6.831-14.341 14.008-16.656 2.659-.854 5.359-.521 8.297 1.028-5.016 7.183-9.948 17.316-9.149 24.864.478 4.512 2.96 7.832 6.989 9.351 6.409 2.42 13.755-.257 21.562-7.843-.275.862-.556 1.734-.842 2.615-2.348 1.611-4.719 3.178-7.064 4.724-11.94 7.873-23.218 15.309-26.776 26.673-2.061 6.578.323 12.621 5.929 15.037 1.521.655 3.189.988 4.96.988 3.251 0 11.52-1.27 18.096-13.02 3.081-5.504 6.719-14.405 10.811-26.453 3.625-2.061 15.028-9.129 22.836-20.396l2.423-3.508c6.574-9.543 9.608-13.532 11.374-13.532.289 0 .592.101.951.315 2.082 1.247-4.193 17.704-6.873 24.735-1.127 2.947-2.312 6.064-3.51 9.311l-.287.783h8.693l.141-.379c.876-2.344 1.746-4.633 2.576-6.811 1.607-4.214 3.125-8.193 4.363-11.779 1.48-3.862 6.903-14.39 14.154-16.709 2.289-.732 4.614-.579 7.092.46-6.393 8.01-8.349 17.925-5.225 26.671 1.591 4.46 5.154 7.384 9.772 8.026.647.091 1.318.136 1.995.136 5.429 0 11.258-2.972 16.509-8.394.761 2.812 1.874 4.969 3.323 6.412 1.659 1.654 3.821 2.5 6.063 2.356 3.863-.196 9.407-3.431 16.495-9.616-.908 2.723-1.752 5.317-2.554 7.864l-.593 1.626 8.168.01.35-.068.175-.25.078-.156c5.171-16.217 11.222-32.404 17.984-48.116 5.251-.117 10.817-.42 16.572-.901-7.303 16.916-17.743 44.418-17.847 44.693l-1.841 4.789h8.724l1.219-3.164c.814-2.132 2.587-6.755 4.763-12.363 6.86-10.598 18.018-22.974 26.879-22.974 1.489 0 2.896.352 4.179 1.051 9.776 5.304 5.391 17.747-1.395 33.537-1.47 3.421-2.857 6.649-3.861 9.583-3.222 9.377-5.788 21.848.273 28.005 3.395 3.443 8.53 4.101 15.298 1.892.389-.139 9.616-3.551 18.122-14.419l.359-.46-6.419-5.023zm-12.738-97.763c2.632-.724 4.92-1.09 6.797-1.09 2.518 0 3.312.657 3.496.859.371.41.292 1.513-.201 2.812-3.654 9.609-18.345 16.679-31.708 19.597 5.046-9.57 11.581-19.423 21.616-22.178zm-270.168 41.662c.798.164 1.482 1.053 1.701 2.211.438 2.305-.835 5.91-5.725 9.111-5.028 3.291-9.683 3.981-12.702 3.981-.251 0-.495-.003-.729-.013 4.057-8.977 13.823-16.058 17.455-15.29zm-105.914 25.867c-3.394 9.859-7.369 12.65-8.166 12.928-.551-.684-1.848-3.963-.756-11.895 2.064-15.027 10.713-30.925 25.716-47.288-8.725 23.67-14.374 39.226-16.794 46.255zm59.565-10.597c-.769 15.282-8.532 37.38-20.188 47.905-4.674 4.225-9.562 6.243-14.595 5.971-4.733-.244-6.232-4.686-6.703-7.312-3.938-21.97 22.899-43.657 41.209-52.493.287 1.87.382 3.858.277 5.929zm110.187 49.606c-3.66 6.537-8.208 8.856-10.988 8.856-.637 0-1.217-.11-1.729-.332-1.668-.72-2.17-2.584-1.377-5.116 2.571-8.208 11.348-14.287 21.705-21.132-2.864 7.853-5.422 13.81-7.611 17.724z"/><path d="m235.16 248.168c-2.624 1.864-10.648 14.331-10.802 20.689l-.016.674.669-.084c4.955-.607 14.677-11.545 20.059-20.918.108-.187.221-.368.343-.542l.593-.851-1.036-.063c-.897-.056-1.806-.087-2.709-.087-4.875.001-6.65.893-7.101 1.182zm-9.582 19.971c.718-6.032 7.981-17.402 10.234-19.002.157-.101 1.673-.983 6.454-.983.553 0 1.107.012 1.662.033-4.914 8.458-13.625 18.498-18.35 19.952z"/><path d="m217.519 310.977.994-.312c1.829-.568 4.627-2.684 6.991-6.907.699-1.251 1.449-2.74 2.226-4.429l1.044-2.268-1.94 1.57c-5.037 4.082-7.911 7.666-9.057 11.33zm7.965-9.668c-.342.678-.675 1.305-.998 1.88-1.691 3.02-3.605 4.874-5.101 5.788 1.078-2.45 3.061-4.945 6.099-7.668z"/><path d="m447.728 290.119c-.3-.236-.733-.182-.968.118l-2.807 3.583c-5.717 7.303-11.738 9.987-12.354 10.25-.742.234-1.321.368-1.754.447-.163-1.731-.13-6.143 2.606-14.12.848-2.462 2.125-5.438 3.479-8.593l.073-.174c6.184-14.391 16.532-38.475-4.298-49.776-1.184-.64-2.407-1.17-3.659-1.58 16.881-6.306 25.986-16.555 28.899-24.213 2.291-6.03 1.456-11.853-2.294-15.978-2.087-2.3-6.043-5.042-13.031-5.042-3.015 0-6.425.516-10.131 1.533-15.298 4.2-23.939 17.432-30.938 31.235-.108.212-.315.354-.553.375-1.576.14-3.168.267-4.756.38-.526.038-.896-.521-.669-.999 5.225-10.999 8.73-17.217 8.78-17.308l4.685-9.438c.237-.478-.132-1.03-.664-.995l-18.562 1.26c-.235.016-.448.152-.56.361l-1.192 2.209c-1.757 3.253-6.426 12.13-12.276 25.097-.113.253-.384.42-.661.413-10.347-.242-15.38-1.329-15.591-1.375l-4.372-1.017c-.367-.085-.735.142-.826.508l-2.829 11.5-2.307-.413c-.712-.124-4.519-.751-9.489-.751-6.229 0-15.101 1.006-21.996 5.8-.249.174-.495.349-.742.526-5.469-2.458-11.184-2.845-16.561-1.123-2.199.706-4.357 1.77-6.426 3.169-.246.167-.561.155-.795-.032-.482-.387-1.004-.748-1.553-1.077-2.633-1.574-5.16-2.34-7.73-2.34-8.445 0-13.727 7.669-21.724 19.279l-.854 1.238c.138-1.57-.151-3.159-.853-4.595-.256-.523-.56-1.017-.908-1.472l5.706-12.165c.188-.399-.043-.872-.477-.966l-7-1.548c-1.2-.275-7.534-1.644-14.472-1.644-6.288 0-11.408 1.121-15.231 3.332-.185.106-.403.115-.596.026-5.535-2.54-11.314-2.948-16.764-1.192-2.151.692-4.266 1.735-6.297 3.104-.239.16-.542.153-.774-.018-.802-.591-1.688-1.105-2.645-1.529-1.64-.727-3.364-1.097-5.125-1.097-6.822 0-12.383 5.573-15.593 9.75-.037-.884-.139-1.768-.305-2.64-1.194-6.285-5.781-11.138-11.687-12.36-.98-.202-2.003-.305-3.041-.305-6.208 0-11.975 3.558-15.873 6.719-.171.138-.38.185-.591.125-3.145-.863-7.852-1.81-13.387-1.81-3 0-5.948.284-8.776.846-.261.052-.52-.054-.671-.272-1.672-2.411-3.672-4.636-5.964-6.635-.349-.305-.305-.846.089-1.088 11.13-6.827 19.017-16.542 21.752-26.877 2.61-9.86.042-18.444-6.869-22.965-6.894-4.508-16.384-3.753-27.862 2.406-.563.302-1.205-.237-.981-.837l1.928-5.178c.179-.481-.211-.981-.72-.926l-17.885 1.923c-.26.028-.481.2-.574.446l-1.443 3.888c-1.13 3.04-4.203 11.304-8.053 21.696-.037.101-.099.193-.179.267-24.233 22.231-38.033 44.528-41.021 66.275-2.84 20.671 6.33 25.157 10.406 26.126.966.229 1.951.344 2.924.344 8.234 0 15.666-7.87 20.392-21.59 2.024-5.883 6.354-17.857 12.875-35.603.089-.243.308-.42.564-.454l5.739-.716c.223.014.481.024.762.031l.385.012c1.118.033 3.105.094 3.741.122.035.002.056.003.091.01 1.907.365 7.855 1.777 12.51 5.828.359.314.272.901-.148 1.126-17.567 9.445-27.642 20.488-33.036 28.186-8.342 11.907-12.029 24.852-10.117 35.513 1.886 10.512 9.029 17.35 18.64 17.843 8.521.478 16.55-2.662 23.848-9.254 14.656-13.237 23.507-39.128 24.395-56.769.09-1.827.071-3.633-.056-5.385-.028-.373.235-.699.606-.732.978-.087 2.012-.127 3.033-.119.495.005.804.527.604.978-.663 1.494-1.192 2.971-1.582 4.404-.221.82-.427 1.623-.633 2.506l-.478 2.235c-1.921 9.919-.594 17.465 3.942 22.425 2.183 2.387 6.117 5.231 12.475 5.231 1.316 0 2.699-.127 4.111-.378 9.742-1.732 20.134-9.289 31.699-23.068-.336.87-.674 1.744-1.011 2.609l-.089.229c-1.335 3.438-2.716 6.991-4.146 10.867l-2.258 6.124c-.166.45.167.927.647.927h17.132c.288 0 .544-.178.645-.445l1.109-2.95c1.055-2.804 2.104-5.503 3.152-8.204 1.452-3.741 2.824-7.271 3.949-10.424 1.39-3.657 4.447-8.771 7.697-11.729.567-.517 1.435.117 1.097.802-2.598 5.261-5.305 12.529-4.622 18.997.663 6.262 4.299 11.082 9.976 13.22.028.011.054.021.082.03-6.079 4.672-13.11 11.153-16.002 20.388-2.767 8.833.739 17.349 8.528 20.706 2.106.908 4.395 1.37 6.804 1.37 4.073-.002 14.383-1.507 22.16-15.402 3.053-5.453 6.588-13.979 10.513-25.347.052-.15.146-.275.282-.359 5.48-3.324 15.34-10.268 22.617-20.768l2.358-3.414c-1.004 2.751-1.981 5.318-2.665 7.115-1.132 2.965-2.324 6.098-3.527 9.361l-2.254 6.123c-.166.449.167.927.646.927h17.135c.288 0 .547-.178.647-.448l1.105-2.957c.872-2.334 1.737-4.615 2.578-6.819 1.519-3.979 3.089-8.097 4.347-11.737 1.039-2.711 3.216-6.672 5.802-9.723.484-.572 1.391-.057 1.171.66-1.987 6.459-1.901 13.187.314 19.388 2.161 6.056 7.214 10.194 13.511 11.071 5.46.759 11.412-.944 16.93-4.828.307-.217.722-.146.946.153.411.549.851 1.055 1.312 1.515 2.613 2.608 5.963 3.895 9.589 3.712 2.165-.11 4.531-.815 7.196-2.147l-.737 2.02 18.338.031c.314 0 .588-.211.668-.512l.853-3.221c4.78-14.992 10.326-29.979 16.488-44.554.104-.248.339-.412.607-.422 1.502-.054 3.068-.124 4.681-.211.507-.028.877.474.684.943-6.785 16.414-14.21 35.984-14.533 36.836l-3.908 10.18c-.175.452.16.937.644.937h17.217c.286 0 .541-.176.644-.441l2.207-5.72c.784-2.062 2.472-6.458 4.545-11.81.02-.047.042-.094.069-.138 6.661-10.145 16.576-20.394 22.674-20.394.715 0 1.354.158 1.96.486 5.162 2.8 4.323 9.501-3.445 27.583-1.508 3.511-2.932 6.827-3.997 9.931-5.305 15.447-4.847 26.478 1.361 32.785 2.944 2.989 6.918 4.57 11.489 4.57 2.601 0 5.48-.509 8.57-1.518l.143-.049c1.105-.4 11.053-4.233 20.203-15.928l2.806-3.582c.235-.301.181-.734-.119-.969zm9.061 13.746c-8.952 11.439-18.609 15.162-19.679 15.549l-.125.043c-2.961.967-5.717 1.456-8.195 1.456-4.253 0-7.938-1.461-10.657-4.224-5.874-5.965-6.241-16.594-1.094-31.59 1.054-3.062 2.469-6.359 3.967-9.848 8.087-18.822 8.799-25.886 2.931-29.069-6.587-3.562-18.647 8.84-26.221 20.403-.027.041-.05.088-.069.135-2.129 5.463-3.816 9.863-4.603 11.924l-1.919 4.972c-.104.267-.359.44-.644.44h-14.721c-.484 0-.817-.484-.644-.936l3.3-8.598c.335-.889 8.319-21.934 15.295-38.671l.357-.861-.931.056c-2.617.159-5.135.277-7.484.354l-.371.012-.146.342c-6.303 14.844-11.969 30.12-16.852 45.431l-.629 2.378c-.081.304-.354.515-.668.513l-14.798-.022c-.478 0-.811-.476-.646-.926l.886-2.427-1.365.76c-3.023 1.685-5.727 2.598-8.037 2.717-3.315.158-6.332-1.003-8.708-3.373-.687-.686-1.323-1.488-1.885-2.387l-.338-.543-.507.387c-5.562 4.238-11.614 6.15-17.116 5.373-5.859-.815-10.562-4.67-12.575-10.309-2.683-7.514-2.114-15.838 1.603-23.442l.853-1.747-1.672.99c-4.662 2.756-8.762 9.958-10.26 13.867-1.261 3.642-2.826 7.749-4.355 11.759-.828 2.169-1.695 4.456-2.567 6.79l-.823 2.2c-.101.271-.359.448-.646.448h-14.66c-.479 0-.812-.478-.646-.928l1.679-4.555c1.2-3.261 2.392-6.387 3.541-9.4 1.004-2.637 2.685-7.045 4.126-11.221l1.355-3.92-2.382 3.396c-.921 1.313-1.77 2.544-2.429 3.503l-2.428 3.514c-7.326 10.568-17.331 17.48-22.643 20.664l-.183.108-.068.2c-3.963 11.52-7.521 20.133-10.579 25.594-7.476 13.359-17.277 14.805-21.144 14.807v.582-.582c-2.249 0-4.383-.429-6.342-1.274-7.221-3.112-10.461-11.044-7.878-19.288 2.932-9.365 10.34-15.861 16.464-20.473l.916-.688-1.095-.333c-.357-.107-.711-.229-1.063-.362-5.251-1.979-8.616-6.443-9.229-12.253-.844-7.975 3.759-17.346 6.576-22.222l.666-1.152-1.299.294c-.182.04-.361.089-.549.148-4.88 1.572-9.934 9.625-11.816 14.583-1.125 3.146-2.493 6.67-3.97 10.472-1.023 2.634-2.073 5.338-3.129 8.148l-.826 2.192c-.101.27-.359.447-.645.447h-14.655c-.479 0-.812-.479-.646-.93l1.681-4.559c1.428-3.867 2.805-7.414 4.139-10.848l.089-.229c.774-1.994 1.562-4.021 2.299-5.971l1.297-3.429-2.296 2.858c-12.303 15.319-23.188 23.639-33.277 25.431-1.344.241-2.659.36-3.907.36-5.935 0-9.592-2.639-11.616-4.853-4.275-4.673-5.506-11.88-3.661-21.405l.472-2.214c.201-.859.401-1.649.619-2.456.52-1.912 1.302-3.907 2.326-5.928l.397-.783-.875-.061c-2.104-.148-4.412-.085-6.401.187l-.558.077.059.56c.216 2.075.27 4.242.16 6.44-.875 17.407-9.588 42.937-24.011 55.964-7.062 6.375-14.794 9.384-23.005 8.957-9.044-.468-15.77-6.938-17.556-16.889-1.858-10.358 1.759-22.985 9.923-34.64 5.479-7.819 15.859-19.137 34.194-28.652l.69-.359-.537-.56c-5.017-5.246-12.245-6.972-14.487-7.392-.033-.007-.052-.009-.085-.01-.708-.039-2.718-.1-3.848-.134l-.389-.012c-.271-.007-.516-.018-.833-.024l-6.965.859-.122.333c-6.674 18.157-11.098 30.39-13.152 36.36-4.552 13.221-11.583 20.804-19.29 20.804-.882 0-1.777-.104-2.655-.313-3.766-.896-12.231-5.108-9.521-24.832 2.958-21.538 16.713-43.671 40.88-65.784l.151-.227c3.9-10.528 7.017-18.916 8.159-21.98l1.194-3.214c.091-.246.312-.418.574-.446l15.294-1.644c.509-.054.899.446.72.926l-3.07 8.242 1.426-.856c12.425-7.455 22.557-8.814 29.671-4.163 6.471 4.233 8.858 12.341 6.381 21.691-2.781 10.502-11.068 20.373-22.737 27.076l-.743.425.671.536c3.005 2.386 5.545 5.145 7.55 8.193l.22.333.391-.085c2.991-.655 6.135-.987 9.341-.987 5.777 0 10.632 1.053 13.688 1.937l.296.087.239-.199c3.745-3.129 9.498-6.86 15.629-6.86.958 0 1.902.094 2.803.281 5.442 1.128 9.674 5.617 10.779 11.438.262 1.379.354 2.788.272 4.182l-.12 2.049 1.179-1.681c2.807-4.001 8.579-10.715 15.711-10.715 1.599 0 3.162.335 4.655.998 1.154.511 2.193 1.159 3.087 1.926l.349.3.373-.269c2.162-1.563 4.428-2.732 6.734-3.473 5.364-1.729 11.049-1.24 16.494 1.414l.292.143.273-.172c3.691-2.319 8.795-3.494 15.176-3.494 6.815 0 13.035 1.344 14.217 1.616l5.586 1.237c.431.096.662.567.477.966l-5.4 11.51.239.284c.729.874 1.267 1.93 1.559 3.077.339 1.325.216 2.725-.143 4.042l-1.183 4.351 4.469-6.433c7.787-11.306 12.932-18.774 20.764-18.774 2.354 0 4.686.711 7.13 2.172.772.466 1.478.99 2.095 1.565l.352.328.389-.281c2.209-1.604 4.527-2.802 6.893-3.56 5.204-1.668 10.729-1.251 16.026 1.212l.311.145.277-.201c.331-.242.666-.479.999-.713 6.644-4.62 15.269-5.591 21.33-5.591 4.874 0 8.593.612 9.286.734l2.741.49c.357.064.704-.16.791-.514l2.662-10.819c.091-.366.459-.593.826-.507l3.264.758c.225.049 5.638 1.219 16.677 1.421l.384.007.158-.35c5.999-13.354 10.802-22.489 12.589-25.798l.888-1.644c.113-.209.324-.345.56-.361l15.897-1.078c.531-.037.901.518.664.996l-3.766 7.59c-.036.063-3.95 6.989-9.743 19.339l-.417.891.981-.063c2.547-.164 5.122-.362 7.653-.591l.322-.031.146-.288c6.934-13.79 15.429-27.125 30.522-31.267 3.607-.988 6.913-1.491 9.824-1.491 6.562 0 10.24 2.533 12.17 4.66 3.445 3.79 4.198 9.177 2.067 14.78-2.916 7.669-12.306 18.042-29.91 24.149l-1.902.659 1.96.458c1.77.411 3.501 1.074 5.146 1.968 19.896 10.791 9.81 34.265 3.783 48.291l-.075.174c-1.36 3.174-2.645 6.17-3.508 8.676-3.204 9.334-2.787 14.035-2.582 15.254l.084.535.544-.056c.695-.071 1.537-.26 2.554-.581.028-.008.049-.016.075-.027 1.212-.518 7.114-3.299 12.836-10.61l2.089-2.665c.235-.301.668-.353.968-.119l10.833 8.48c.3.234.352.667.118.967z"/><path d="m330.414 255.521c1.55-3.226 3.15-6.559 4.899-10.615l.391-.905-.983.097c-3.719.366-6.645 1.276-8.694 2.703-6.788 4.724-12.951 12.836-9.871 21.458l.117.349.364.044c.098.013.166.016.237.016 2.398 0 6.821-2.273 11.393-8.677l-.462-.355.542.229c.686-1.467 1.367-2.883 2.067-4.344zm-3.096 3.79c-4.341 6.08-8.333 7.961-10.2 8.166-2.547-7.848 3.233-15.311 9.569-19.721 1.679-1.168 4.137-1.986 7.15-2.385-1.582 3.623-3.054 6.684-4.494 9.686-.683 1.425-1.363 2.843-2.025 4.254z"/><path d="m441.32 201.293-1.171.127c-1.283.14-2.746.434-4.345.874-5.113 1.405-9.77 5.221-14.236 11.67l-1.053 1.518 1.733-.64c5.231-1.935 14.588-6.138 18.462-12.542zm-17.658 11.758c3.951-5.263 8.037-8.42 12.453-9.632 1.028-.284 1.996-.504 2.889-.659-2.805 3.811-8.159 7.404-15.342 10.291z"/><path d="m125.092 194.575c.631-2.385.49-4.249.091-4.97l-.11-.199-.216-.072c-.214-.073-.603-.158-1.23-.158-1.705 0-8.267.793-21.11 10.995-3.557 2.824-6.987 5.697-10.193 8.539l-3.598 9.534 5.836-.49c14.046-2.251 27.742-12.65 30.53-23.179zm-34.64 22.356 2.753-7.446c3.159-2.796 6.536-5.624 10.035-8.401 12.548-9.969 18.776-10.743 20.387-10.743.27 0 .472.019.613.04.136.513.277 1.813-.273 3.896-2.681 10.125-15.954 20.141-29.544 22.32z"/><path d="m158.777 248.984c1.428-.933 2.526-1.93 3.267-2.963l1.66-2.317-2.436 1.481c-1.543.938-3.269 2.315-4.86 3.879l-2.931 2.877 3.614-1.949c.555-.302 1.117-.635 1.686-1.008z"/><path d="m80.318 301.803c.519 2.9 1.647 4.354 3.445 4.441.237.015.467.021.697.021 3.809 0 7.636-1.712 11.377-5.092 10.655-9.624 18.022-30.262 18.992-44.654l.071-1.062-.933.514c-27.959 15.389-35.44 35.842-33.649 45.832zm14.74-1.494c-3.521 3.18-7.087 4.793-10.598 4.793-.209 0-.42-.008-.638-.018-.432-.023-1.749-.09-2.359-3.485-1.712-9.55 5.474-29.055 32.12-44.082-1.231 14.094-8.351 33.6-18.525 42.792z"/><path d="m148.107 267.52-.016.553c-.049 1.703.157 2.72.338 3.271l.209.399h.422c.366 0 .816-.043 1.271-.124 1.918-.341 5.187-1.523 9.859-5.209l2.88-2.271-3.441 1.268c-3.576 1.317-7.265 2.024-10.966 2.101zm8.485.056c-2.955 1.932-5.09 2.65-6.466 2.895-.234.043-.471.074-.701.092-.087-.405-.171-1.023-.176-1.908 2.465-.091 4.924-.452 7.343-1.079z"/><path d="m350.646 247.487c-2.468 6.013-4.563 10.376-6.63 14.677l-.056.121.002.134c.026 1.546.151 3.116.362 4.545l.137.922.769-.528c3.499-2.404 9.989-7.811 16.771-15.154l.457-.529.104-.178c1.925-5.139 3.961-10.334 6.052-15.435l.31-.756-.813-.045c-8.756-.5-12.961-1.515-13.41-1.628l-2.889-.718-3.182 9.154 4.015.551zm-.452-6.381 2.366-6.808 1.854.462c.448.113 4.499 1.093 12.815 1.614-1.976 4.838-3.896 9.754-5.72 14.619l-.375.435c-6.228 6.743-12.198 11.832-15.782 14.419-.104-.881-.195-2.01-.224-3.311 2.027-4.219 4.125-8.588 6.594-14.605l2.567-6.262z"/><path d="m55.881 297.416h-21.323c-1.607 0-2.91 1.305-2.91 2.912s1.304 2.911 2.91 2.911h21.323c1.607 0 2.91-1.304 2.91-2.911 0-1.605-1.302-2.912-2.91-2.912z"/><path d="m193.668 297.416h-64.767c-1.607 0-2.91 1.305-2.91 2.912s1.304 2.911 2.91 2.911h64.767c1.607 0 2.91-1.304 2.91-2.911 0-1.605-1.303-2.912-2.91-2.912z"/><path d="m279.846 297.416h-27.267c-1.607 0-2.911 1.305-2.911 2.912s1.304 2.911 2.911 2.911h27.267c1.607 0 2.911-1.304 2.911-2.911 0-1.605-1.304-2.912-2.911-2.912z"/><path d="m405.992 297.416h-27.267c-1.607 0-2.911 1.305-2.911 2.912s1.304 2.911 2.911 2.911h27.267c1.607 0 2.911-1.304 2.911-2.911 0-1.605-1.303-2.912-2.911-2.912z"/><path d="m294.689 300.004-1.088-.168c-.518-.084-1.033-.279-1.34-.544s-.447-.657-.447-1.146c0-1.104.768-1.842 2.094-1.842 1.049 0 1.705.293 2.319.85l.683-.683c-.852-.769-1.69-1.09-2.959-1.09-1.971 0-3.186 1.118-3.186 2.807 0 .797.253 1.412.755 1.856.435.377 1.05.628 1.831.756l1.158.181c.726.11.977.193 1.299.476.321.279.475.726.475 1.243 0 1.157-.895 1.843-2.348 1.843-1.118 0-1.885-.264-2.71-1.088l-.726.726c.936.937 1.913 1.312 3.407 1.312 2.067 0 3.437-1.073 3.437-2.821 0-.824-.293-1.508-.838-1.968-.419-.366-.879-.561-1.816-.7z"/><path d="m300.265 295.464h1.061v9.944h-1.061z"/><path d="m311.188 303.412-5.278-7.948h-1.006v9.946h1.06v-7.976l5.28 7.976h1.006v-9.946h-1.062z"/><path d="m318.93 296.33c1.242 0 2.094.797 2.358 2.01h1.09c-.335-1.87-1.662-2.96-3.448-2.96-.979 0-1.871.362-2.542 1.034-.937.936-.937 1.914-.937 4.023 0 2.107 0 3.088.937 4.021.671.672 1.563 1.034 2.542 1.034 1.774 0 3.129-1.089 3.448-2.96h-1.061c-.265 1.215-1.146 2.01-2.388 2.01-.657 0-1.285-.249-1.718-.697-.628-.642-.697-1.326-.697-3.406 0-2.082.069-2.767.697-3.408.434-.448 1.061-.701 1.719-.701z"/><path d="m325.429 305.41h6.173v-.951h-5.114v-3.589h4.359v-.95h-4.359v-3.506h5.114v-.95h-6.173z"/><path d="m338.993 297.071v1.144l1.857-1.632v8.827h1.005v-9.946h-1.005z"/><path d="m349.639 300.254c.782-.445 1.284-1.173 1.284-2.207 0-1.551-1.159-2.666-2.737-2.666-1.577 0-2.736 1.117-2.736 2.666 0 1.034.518 1.762 1.299 2.207-.837.477-1.494 1.258-1.494 2.417 0 1.677 1.285 2.821 2.934 2.821 1.647 0 2.935-1.145 2.935-2.821-.004-1.159-.647-1.941-1.485-2.417zm-3.184-2.192c0-1.033.711-1.786 1.73-1.786 1.021 0 1.731.755 1.731 1.786 0 1.049-.711 1.775-1.731 1.775-1.019-.001-1.73-.728-1.73-1.775zm1.732 6.538c-1.09 0-1.927-.838-1.927-1.941s.837-1.939 1.927-1.939c1.089 0 1.928.836 1.928 1.939s-.84 1.941-1.928 1.941z"/><path d="m357.63 300.254c.782-.445 1.285-1.173 1.285-2.207 0-1.551-1.16-2.666-2.737-2.666-1.578 0-2.737 1.117-2.737 2.666 0 1.034.518 1.762 1.299 2.207-.837.477-1.494 1.258-1.494 2.417 0 1.677 1.285 2.821 2.935 2.821 1.647 0 2.934-1.145 2.934-2.821-.004-1.159-.646-1.941-1.485-2.417zm-3.184-2.192c0-1.033.711-1.786 1.731-1.786s1.73.755 1.73 1.786c0 1.049-.711 1.775-1.73 1.775-1.02-.001-1.731-.728-1.731-1.775zm1.732 6.538c-1.09 0-1.927-.838-1.927-1.941s.837-1.939 1.927-1.939 1.928.836 1.928 1.939-.838 1.941-1.928 1.941z"/><path d="m365.623 300.254c.783-.445 1.285-1.173 1.285-2.207 0-1.551-1.16-2.666-2.737-2.666-1.578 0-2.737 1.117-2.737 2.666 0 1.034.518 1.762 1.299 2.207-.837.477-1.494 1.258-1.494 2.417 0 1.677 1.285 2.821 2.935 2.821 1.648 0 2.934-1.145 2.934-2.821-.004-1.159-.646-1.941-1.485-2.417zm-3.184-2.192c0-1.033.712-1.786 1.731-1.786s1.731.755 1.731 1.786c0 1.049-.712 1.775-1.731 1.775-1.019-.001-1.731-.728-1.731-1.775zm1.732 6.538c-1.09 0-1.927-.838-1.927-1.941s.837-1.939 1.927-1.939 1.928.836 1.928 1.939-.838 1.941-1.928 1.941z"/></g></svg>